<svg xmlns="http://www.w3.org/2000/svg" width="180" height="180" viewBox="0 0 180 180">
  <g fill="none" stroke="#ffffff" stroke-width="1" stroke-linecap="round" stroke-linejoin="round" opacity="0.06">
    <path d="M30 35c-4-8 0-15 8-15s12 7 8 15-12 8-12 8"/>
    <circle cx="140" cy="45" r="6"/>
    <path d="M134 45c0-3 3-5 6-5s6 2 6 5-3 5-6 5-6-2-6-5z"/>
    <path d="M40 120l8 8 8-8M48 112v16"/>
    <path d="M115 130c5 0 9 4 9 9s-4 9-9 9-9-4-9-9 4-9 9-9z"/>
    <path d="M111 130v18M119 130v18M111 139h8"/>
    <path d="M75 70l-6 6 6 6M75 70l6 6-6 6"/>
    <circle cx="150" cy="130" r="4"/>
    <circle cx="150" cy="130" r="1"/>
    <path d="M20 90c4 0 4 6 0 6s-4-6 0-6z"/>
    <path d="M160 75v10M155 80h10"/>
    <path d="M88 145c2 2 6 2 8 0"/>
    <circle cx="92" cy="140" r="3"/>
    <path d="M62 25l3 3M62 28l-3 3"/>
    <path d="M125 25h8v8h-8z"/>
    <path d="M127 27l4 4M131 27l-4 4"/>
  </g>
</svg>
